# xmcd
#
# Track frame offsets:
#  150
#  12662
#  24067
#  36880
#  50987
#  62982
#  74865
#  89672
#  104602
#  118117
#  134972
#
# Disc length: 1944 seconds
#
# Revision: 0
# Processed by: cddbd v1.5.1PL2 Copyright (c) Steve Scherf et al.
# Submitted via: Collectorz.com_Music_Collector 6.9
#
DISCID=b407960b
DTITLE=Jim and Jesse - Jim and Jesse Today
DYEAR=1980
DGENRE=Bluegrass
TTITLE0=Colorado Calling Me
TTITLE1=It's A Little More Like Heaven
TTITLE2=Johnny B. Goode
TTITLE3=Where Do We Go From Here?
TTITLE4=Are You Tired of Me My Darling?
TTITLE5=Mandolin Man
TTITLE6=Rider In the Rain
TTITLE7=First Step
TTITLE8=Truck Stops And Pretty Girls
TTITLE9=Those Brown Eyes
TTITLE10=Magic Little Garden
EXTD=
EXTT0=
EXTT1=
EXTT2=
EXTT3=
EXTT4=
EXTT5=
EXTT6=
EXTT7=
EXTT8=
EXTT9=
EXTT10=
PLAYORDER=
